<?xml version="1.0" encoding="utf-8"?>
<!-- Generator: Adobe Illustrator 22.0.1, SVG Export Plug-In . SVG Version: 6.00 Build 0)  -->
<svg version="1.1" id="Layer_1" xmlns="http://www.w3.org/2000/svg" xmlns:xlink="http://www.w3.org/1999/xlink" x="0px" y="0px"
	 viewBox="0 0 100 100" style="enable-background:new 0 0 100 100;" xml:space="preserve">
<style type="text/css">
	.st0{fill:#83D1C0;}
	.st1{fill:#F5F0E4;}
</style>
<g>
	<circle class="st0" cx="49.5" cy="50.5" r="46.5"/>
</g>
<g>
	<path class="st1" d="M31.5,32.2h-3.4v-0.6h7.5v0.6h-3.4v8.9h-0.7V32.2z"/>
	<path class="st1" d="M37.2,31.6h0.7V33h-0.7V31.6z M37.2,34.4h0.6v6.7h-0.6V34.4z"/>
	<path class="st1" d="M40.4,39.7v-8.1H41v7.9c0,0.6,0,1.1,0.8,1.1c0.2,0,0.4,0,0.6-0.1l0,0.6c-0.3,0.1-0.6,0.1-0.8,0.1
		C40.5,41.2,40.4,40.6,40.4,39.7z"/>
	<path class="st1" d="M44.1,34.4h0.6v1.3c0.3-0.9,1.1-1.4,2.1-1.4c1.1,0,1.8,0.5,2.1,1.6c0.3-1,1.2-1.6,2.2-1.6
		c1.6,0,2.3,1.1,2.3,2.9v3.9h-0.6v-3.8c0-1.6-0.5-2.4-1.8-2.4c-1.2,0-2,0.9-2,2.1v4.1h-0.6V37c0-1.3-0.6-2.1-1.7-2.1
		c-1.2,0-2,0.9-2,2.1v4.1h-0.6L44.1,34.4z"/>
	<path class="st1" d="M55.3,37.8c0-2,1.1-3.5,2.9-3.5c2.1,0,2.8,1.7,2.8,3c0,0.2,0,0.5,0,0.6h-5.1c0,1.7,0.9,2.7,2.4,2.7
		c0.9,0,1.4-0.2,2.1-0.9l0.5,0.4c-0.8,0.8-1.5,1.1-2.5,1.1C56.4,41.2,55.3,39.8,55.3,37.8z M60.4,37.4c0-0.1,0-0.3,0-0.4
		c-0.1-1-0.7-2.1-2.2-2.1c-1.3,0-2.2,1-2.3,2.6H60.4z"/>
	<path class="st1" d="M63,39.7v-8.1h0.6v7.9c0,0.6,0,1.1,0.8,1.1c0.2,0,0.4,0,0.6-0.1l0,0.6c-0.3,0.1-0.6,0.1-0.8,0.1
		C63.2,41.2,63,40.6,63,39.7z"/>
	<path class="st1" d="M66.1,37.8c0-1.9,1.2-3.4,3-3.4c1.2,0,2.2,0.7,2.6,1.8v-4.5h0.6v9.5h-0.6l0-1.8c-0.4,1.2-1.4,1.9-2.6,1.9
		C67.4,41.2,66.1,39.7,66.1,37.8z M71.8,37.8c0-1.6-1-2.9-2.5-2.9c-1.5,0-2.5,1.2-2.5,2.9c0,1.6,1,2.9,2.5,2.9
		C70.8,40.6,71.8,39.4,71.8,37.8z"/>
</g>
<g>
	<path class="st1" d="M13.7,44.1v9.5h-1.5L8,46.5v7.1H6.6v-9.5h1.5l4.2,7.1v-7.1H13.7z"/>
	<path class="st1" d="M18.7,50l-3.6-5.8h1.7l2.6,4.4l2.6-4.4h1.8L20.2,50v3.7h-1.5V50z"/>
	<path class="st1" d="M25.2,44.1h1.4v4.1h4.4v-4.1h1.4v9.5h-1.4v-4.1h-4.4v4.1h-1.4V44.1z"/>
	<path class="st1" d="M35.2,44.1h6.3v1.3h-4.8v2.7h4.5v1.3h-4.5v2.7h4.8v1.4h-6.3V44.1z"/>
	<path class="st1" d="M43.6,44.1h2.7c3.2,0,4.9,1.7,4.9,4.8c0,3-1.8,4.7-4.9,4.7h-2.7V44.1z M46.2,52.3c2.2,0,3.6-0.9,3.6-3.4
		c0-2.4-1-3.4-3.5-3.4h-1.2v6.8H46.2z"/>
	<path class="st1" d="M52.3,51l1.4-0.4c0.1,1.2,1,1.8,2.1,1.8c1.1,0,1.8-0.6,1.8-1.4c0-2.1-4.7-1.4-4.7-4.5c0-1.6,1.3-2.6,2.9-2.6
		c1.2,0,2.2,0.5,2.8,1.6l-1.2,0.7c-0.4-0.7-1-1.1-1.7-1.1c-0.8,0-1.4,0.5-1.4,1.2c0,2,4.7,1.3,4.7,4.4c0,1.7-1.4,2.8-3.2,2.8
		C54.1,53.7,52.6,52.8,52.3,51z"/>
	<path class="st1" d="M60.9,44.1H64c1.5,0,3,0.7,3,2.5c0,0.9-0.5,1.6-1.1,1.9c0.9,0.3,1.6,1.3,1.6,2.4c0,1.7-1.4,2.7-3.1,2.7h-3.5
		V44.1z M64.2,48.1c0.8,0,1.4-0.3,1.4-1.3c0-0.9-0.7-1.3-1.6-1.3h-1.7v2.6H64.2z M64.4,52.3c1,0,1.6-0.5,1.6-1.5
		c0-0.8-0.6-1.4-1.6-1.4h-2.1v2.9H64.4z"/>
	<path class="st1" d="M69.4,44.1h2.9c1.8,0,3.2,1,3.2,2.7c0,1.2-0.8,2.1-1.9,2.5l2.6,4.3h-1.7l-2.4-4.1c-0.2,0-0.4,0-0.6,0h-0.8v4.1
		h-1.4V44.1z M72.5,48.3c1.1,0,1.7-0.6,1.7-1.4c0-0.9-0.7-1.5-1.8-1.5h-1.5v2.9H72.5z"/>
	<path class="st1" d="M77.9,44.1h6.3v1.3h-4.8v2.7h4.5v1.3h-4.5v2.7h4.8v1.4h-6.3V44.1z"/>
	<path class="st1" d="M94,44.1l-3.8,9.5h-1.1l-3.8-9.5h1.6l2.8,7.2l2.7-7.2H94z"/>
</g>
</svg>
